<svg id="Layer_1" enable-background="new 0 0 512.008 512.008" height="512" viewBox="0 0 512.008 512.008" width="512" xmlns="http://www.w3.org/2000/svg"><path d="m471.513 264.351-107.853-57.935c-24.369-13.093-54.691-3.966-67.786 20.409l-25.421 47.325c-13.092 24.371-3.965 54.693 20.41 67.784l107.854 57.937c24.408 13.109 54.773 3.812 67.785-20.41l25.421-47.325c13.061-24.315 3.906-54.724-20.41-67.785z"/><path d="m163.398 191.661-12.94-33.268c-7.722-19.849-30.153-29.721-50.005-21.996l-75.813 29.489c-19.896 7.738-29.739 30.106-21.998 50.006l12.94 33.266c7.691 19.772 30.083 29.748 50.005 21.997l75.814-29.49c19.851-7.723 29.719-30.154 21.997-50.004z"/><path d="m359.199 108.475c39.616-7.789 81.145-5.13 120.286 4.223-12.983-37.69-34.172-70.992-62.064-96.773-6.304-5.829-16.084-5.641-22.161.423l-39.377 39.289c-4.304 4.294-5.802 10.655-3.867 16.419 4.035 12.021 6.36 24.134 7.183 36.419z"/><path d="m211.777 397.259c-16.045 11.556-32.805 19.442-50.608 23.861-7.826 1.942-12.983 9.404-12.034 17.412l6.673 56.298c.833 7.025 6.18 12.67 13.15 13.88 41.016 7.126 83.178 2.273 121.827-11.312-18.953-12.393-57.049-52.643-79.008-100.139z"/><path d="m275.72 370.125c-15.458-8.302-27.575-21.037-35.041-36.553-7.55 13.255-8.802 29.676-2.506 44.32 13.941 32.428 34.763 61.119 63.657 87.714 20.943 19.276 53.863 16.86 71.859-5.136l22.151-27.073c-8.921-3.049-3.825-.801-120.12-63.272z"/><path d="m474.388 144.368c-38.125-9.406-73.543-10.927-108.28-4.644-16.773 3.033-30.472 14.384-36.906 29.441 16.989-2.285 34.212.793 49.602 9.061 115.549 62.068 111.607 59.377 119.609 65.622l11.368-36.732c8.409-27.17-7.784-55.937-35.393-62.748z"/><path d="m2.911 140.963c6.685-3.901 3.007-2.129 85.942-34.389 10.975-4.271 22.586-5.708 33.969-4.331-4.028-3.619-8.852-6.429-14.26-8.107-23.137-7.181-47.351-9.11-74.02-5.893-10.396 1.252-19.932 6.806-26.162 15.237-10.565 14.3-7.254 27.569-5.469 37.483z"/><path d="m176.73 269.383c3.432-5.885 5.137-12.405 5.212-18.898-7.442 9.087-17.234 16.449-28.939 21.002-84.263 32.777-79.226 31.176-87.039 32.805 5.904 9.338 12.272 22.324 30.601 25.897 10.305 2.005 21.076-.348 29.583-6.445 21.833-15.653 38.378-33.434 50.582-54.361z"/><path d="m116.301 63.059c1.557-6.504 3.805-12.836 6.863-18.954 3.605-7.212 1.281-15.98-5.424-20.459l-31.325-20.923c-5.883-3.929-13.648-3.53-19.096.984-17.232 14.279-31.454 32.635-41.84 53.626 23.001-4.578 59.186-3.776 90.822 5.726z"/><path d="m150.102 345.831c16.791 4.878 34.333 7.219 52.314 6.39 1.632-22.082 9.921-33.544 21.942-54.646-.508-6.538-4.559-11.607-9.988-13.794-2.475-.997-4.922-2.087-7.346-3.297-8.568 17.886-28.55 43.864-56.922 65.347z"/></svg>