<svg id="Layer_1" enable-background="new 0 0 509.768 509.768" height="512" viewBox="0 0 509.768 509.768" width="512" xmlns="http://www.w3.org/2000/svg"><path d="m495.242 377.317c-1.404-2.186-2.864-4.325-4.386-6.409-16.871-37.08-41.099-65.767-69.329-83.264-9.198-12.363-19.424-23.097-30.441-32.007l7.279-19.336c10.488-27.862.206-58.54-23.094-74.922l48.784-129.589c3.112-8.27-1.067-17.498-9.338-20.611-8.271-3.115-17.498 1.068-20.611 9.337l-48.783 129.589c-28.32-3.049-56.278 13.233-66.767 41.095l-13.248 35.192c-57.567-44.753-142.947-12.597-156.04 59.739-29.297 17.332-54.458 46.606-71.824 84.773-1.505 2.061-2.949 4.177-4.339 6.338h-17.105c-8.837 0-16 7.164-16 16s7.163 16 16 16h25.352l38.634 49.523c19.955 25.582 51.963 40.854 85.619 40.854h178.557c33.656 0 65.664-15.273 85.619-40.854l38.634-49.523h25.352c8.837 0 16-7.164 16-16 .001-8.339-6.381-15.18-14.525-15.925zm-185.117-119.883c14.681 0 29.024 3.798 42.49 10.906-22.813.698-51.933 8.816-88.456 24.682-12.033-5.228-23.256-9.607-33.72-13.164 39.889-17.381 64.541-22.424 79.686-22.424zm107.029 119.808c-15.152-9.57-29.781-18.541-43.855-26.895 31.551-3.691 60.182 6.845 80.828 26.895zm-85.94-50.946c-9.524-5.212-18.706-10.056-27.568-14.562 41.292-14.708 72.981-18.274 109.149 8.634-27.841-5.895-52.332-1.793-81.581 5.928zm-158.714-26.011c25.106 0 76.294 13.82 179.826 74.825h-23.205c-87.061-38.205-149.831-57.572-186.639-57.572-9.186 0-18.224.975-26.998 2.834 17.449-12.983 36.919-20.087 57.016-20.087zm71.864 74.825h-167.916c17.784-16.204 41.205-25.572 66.035-25.572 16.38 0 46.575 5.144 101.881 25.572zm124.053-150.083-4.883 12.97c-4.845-2.356-9.785-4.396-14.807-6.106l14.467-38.431c6.995 8.555 9.388 20.502 5.223 31.567zm-35.171-42.841-16.356 43.449c-5.738-.33-11.006-.269-17.219.306l8.834-23.467c4.165-11.064 13.842-18.468 24.741-20.288zm-100.027 61.84c-18.071 7.192-36.212 15.706-53.552 24.508-10.704-.703-21.181.157-31.131 2.215 17.257-29.811 54.11-41.039 84.683-26.723z"/></svg>