<?xml version="1.0" standalone="no"?>
<!DOCTYPE svg PUBLIC "-//W3C//DTD SVG 20010904//EN"
 "http://www.w3.org/TR/2001/REC-SVG-20010904/DTD/svg10.dtd">
<svg version="1.0" xmlns="http://www.w3.org/2000/svg"
 width="1100.000000pt" height="578.000000pt" viewBox="0 0 1100.000000 578.000000"
 preserveAspectRatio="xMidYMid meet">

<g transform="translate(0.000000,578.000000) scale(0.100000,-0.100000)"
fill="#000000" stroke="none">
<path d="M645 5143 c-57 -23 -145 -86 -178 -128 -16 -20 -42 -64 -58 -99 l-29
-62 2 -1390 3 -1389 29 -60 c40 -80 115 -154 201 -196 l70 -34 4815 0 4815 0
70 34 c86 42 161 116 201 196 l29 60 3 1389 2 1390 -29 62 c-16 35 -42 79 -58
99 -34 43 -122 106 -181 128 -39 16 -387 17 -4855 16 -4404 0 -4815 -1 -4852
-16z m9624 -298 c16 -8 33 -27 40 -42 8 -21 11 -367 9 -1344 -3 -1278 -4
-1318 -22 -1338 -10 -11 -35 -25 -55 -31 -50 -14 -9432 -14 -9482 0 -20 6 -45
20 -55 31 -18 20 -19 60 -22 1338 -2 976 1 1323 9 1344 7 15 24 34 38 42 40
22 9498 22 9540 0z"/>
<path d="M3525 4302 c-187 -42 -323 -118 -447 -251 -150 -158 -228 -359 -228
-585 0 -332 173 -614 465 -755 143 -70 218 -86 400 -86 128 0 162 4 230 24
150 43 255 103 365 208 145 136 229 310 255 525 l6 46 64 17 c99 27 195 5 195
-44 0 -14 9 -69 20 -121 26 -120 98 -270 174 -361 104 -125 265 -226 428 -271
93 -25 291 -35 382 -19 340 59 603 297 692 626 29 108 27 342 -5 450 -84 290
-306 508 -594 587 -114 31 -298 35 -420 9 -103 -22 -231 -76 -314 -132 -148
-102 -268 -263 -319 -429 l-19 -61 -35 6 c-87 15 -140 16 -202 2 l-67 -14 -21
65 c-88 271 -298 472 -580 552 -107 31 -314 37 -425 12z m305 -273 c86 -20
192 -79 255 -143 110 -112 165 -251 165 -421 0 -165 -45 -285 -149 -397 -95
-103 -208 -156 -356 -165 -266 -17 -494 153 -561 417 -13 49 -15 94 -12 185 4
107 9 129 37 197 38 91 98 172 167 226 62 50 83 60 169 88 78 26 206 31 285
13z m1995 -4 c189 -50 338 -203 389 -402 22 -84 21 -241 -2 -324 -93 -335
-453 -494 -767 -339 -119 58 -218 174 -265 310 -28 82 -38 243 -20 333 39 193
181 354 365 413 85 28 212 31 300 9z"/>
<path d="M6919 4277 c-73 -48 -69 -7 -67 -819 3 -721 3 -727 24 -755 67 -90
202 -87 257 5 15 26 17 57 17 220 l0 190 126 121 c69 67 129 121 134 121 4 0
107 -127 228 -282 357 -457 342 -441 415 -441 89 0 152 61 152 148 0 64 24 30
-322 458 l-262 325 269 257 c265 253 290 283 290 342 0 39 -31 94 -64 114 -37
23 -116 25 -154 5 -15 -8 -202 -191 -417 -406 l-390 -391 -5 363 c-5 329 -7
366 -23 390 -40 59 -146 77 -208 35z"/>
<path d="M1295 4281 c-11 -5 -33 -23 -50 -41 l-30 -31 0 -739 0 -740 38 -37
37 -38 433 0 c424 0 433 0 507 23 155 49 263 133 317 249 24 52 27 70 27 173
1 111 0 118 -32 182 -40 82 -109 147 -202 190 l-67 32 59 43 c115 85 168 211
154 367 -15 161 -118 281 -300 345 -71 25 -72 25 -471 28 -220 1 -409 -2 -420
-6z m744 -277 c110 -32 168 -126 141 -231 -16 -64 -39 -94 -102 -129 l-53 -29
-262 -3 -263 -3 0 205 0 206 243 0 c191 0 255 -3 296 -16z m14 -665 c163 -25
241 -109 222 -238 -10 -69 -44 -114 -112 -148 l-58 -28 -302 -3 -303 -3 0 215
0 216 241 0 c132 0 273 -5 312 -11z"/>
<path d="M8578 4266 c-71 -49 -69 -25 -66 -823 3 -706 3 -712 24 -740 68 -91
203 -87 259 7 18 32 20 55 23 268 l4 232 173 0 173 0 69 -87 c38 -49 133 -170
211 -269 153 -195 179 -217 258 -217 109 0 180 120 124 210 -11 18 -89 120
-175 227 -85 107 -155 196 -155 199 0 3 16 11 35 17 102 34 215 127 263 218
43 80 62 161 62 257 -1 253 -127 419 -380 498 -60 19 -95 21 -465 24 l-400 4
-37 -25z m716 -257 c176 -24 256 -105 256 -257 0 -123 -63 -207 -187 -249 -37
-12 -106 -17 -298 -20 l-250 -5 3 271 3 271 199 0 c109 0 233 -5 274 -11z"/>
<path d="M6470 1156 c-135 -38 -209 -137 -197 -265 11 -122 83 -180 292 -235
54 -15 113 -35 130 -44 57 -34 58 -104 2 -146 -24 -18 -42 -21 -110 -20 -88 1
-141 18 -206 68 -45 34 -76 33 -112 -3 -56 -56 -29 -101 99 -163 84 -41 91
-43 199 -46 128 -5 187 10 249 62 48 39 84 117 84 182 0 137 -70 203 -275 259
-55 15 -117 36 -138 47 -62 31 -71 92 -20 140 21 20 35 23 102 23 68 0 86 -4
141 -32 34 -18 74 -33 87 -33 32 0 73 42 73 75 0 92 -247 173 -400 131z"/>
<path d="M4165 1135 l-25 -24 0 -371 c0 -389 3 -417 45 -434 34 -13 72 -6 93
17 20 21 22 34 22 123 l0 100 65 64 c35 35 66 62 69 59 2 -2 57 -71 121 -154
155 -198 172 -215 210 -215 42 0 75 36 75 81 0 28 -20 58 -121 184 -67 83
-133 165 -147 184 l-26 33 142 137 c117 112 142 141 142 164 0 39 -41 77 -82
77 -28 0 -55 -23 -240 -207 l-208 -207 0 186 0 187 -26 20 c-36 28 -79 27
-109 -4z"/>
<path d="M5025 1135 l-25 -24 0 -379 0 -379 25 -27 c31 -33 74 -34 112 -2 l28
24 0 380 0 380 -24 26 c-33 35 -83 35 -116 1z"/>
<path d="M5391 1124 c-20 -26 -21 -38 -21 -395 l0 -368 24 -28 24 -28 174 0
c190 0 235 8 331 58 75 39 158 129 189 204 19 49 23 76 23 168 0 93 -3 118
-23 159 -52 114 -143 197 -259 237 -48 16 -84 19 -249 19 l-193 0 -20 -26z
m434 -149 c101 -51 145 -127 145 -256 0 -114 -64 -207 -169 -245 -27 -9 -92
-18 -156 -21 l-110 -5 0 282 0 282 115 -4 c104 -3 121 -6 175 -33z"/>
</g>
</svg>
